<svg id="Layer_1" data-name="Layer 1" xmlns="http://www.w3.org/2000/svg" viewBox="0 0 1424 293"><defs><style>.cls-1,.cls-3{fill:#000435;}.cls-2,.cls-4{fill:#fff;}.cls-3,.cls-4{stroke:#000;stroke-miterlimit:10;stroke-width:0.5px;}</style></defs><path class="cls-1" d="M44.89,264.13c-7.62,0-12.71-1.54-16-4.85s-4.84-8.56-4.79-16.43c.15-23.49.12-47.38.09-70.48q0-14.44,0-28.87V143h-.32q0-13.86,0-27.71c.06-22.76.11-46.29-.16-69.43-.09-7.39,1.33-12.31,4.47-15.48s8-4.61,15-4.61h.23q13.21.06,26.42.06c36.08,0,72.72-.33,108.89-1h.93c7.49,0,12.75,1.71,16.08,5.23s4.87,9.21,4.43,17.13c-.08,1.54-.1,3.1-.12,4.6,0,.76,0,1.51,0,2.27-.55,24.42-.55,24.42-24.5,24.46-7.1,0-14.2,0-21.3.08q-13.18.07-26.39.09c-12.62,0-23-.09-32.8-.28l-1.1,0c-10.07,0-13.32,3.33-13.36,13.71v1.8c-.12,25.23.14,25.47,27.21,25.71l7.48.08c7.3.07,14.86.15,22.29.15,8.88,0,16.29-.11,23.34-.34l1.1,0c5,0,8.52,1.16,10.85,3.53,2.49,2.53,3.66,6.57,3.56,12.34,0,2.31,0,4.65,0,6.92,0,3.34.06,6.8-.1,10.18-.54,11.5-5.63,16.63-16.5,16.63h-1c-3.73-.11-7.67-.16-12-.16-6.44,0-13,.11-19.31.22s-12.86.22-19.28.22c-4.63,0-8.79-.06-12.71-.17l-1.54,0c-5.37,0-8.68,1-10.74,3.16s-3,5.88-2.62,11.66c.29,4.94.31,9,.34,12.23.09,14.81.5,14.81,22.34,14.88l4.52,0c2.14,0,4.28,0,6.41,0,10.83,0,21.85-.15,32.5-.3,9.7-.13,19.73-.27,29.6-.3h.55c21.42,0,24.14,2.85,24.19,25.41,0,.77,0,1.53-.05,2.3a32.31,32.31,0,0,0,.06,4.61c.81,7.49-.24,12.73-3.2,16s-8.35,5.05-16.54,5.05l-1.36,0c-20.62-.42-41.52-.64-62.1-.64-23.77,0-47.83.29-71.51.86Z"/><path d="M179.66,25.32c7.35,0,12.49,1.66,15.72,5.08s4.72,9,4.3,16.76c-.09,1.54-.11,3.11-.13,4.62,0,.76,0,1.51,0,2.26-.26,11.7-.41,18.15-3.31,21.05S187,78,175.52,78c-7.09,0-14.31,0-21.28.08-8.66,0-17.6.09-26.4.09-12.62,0-23-.09-32.8-.28l-1.11,0c-10.32,0-13.82,3.59-13.86,14.2v1.8c-.12,25.49.4,26,27.7,26.22l7.51.08c7.3.07,14.85.15,22.27.15,8.89,0,16.31-.11,23.36-.34l1.09,0c4.82,0,8.25,1.11,10.48,3.38,2.4,2.43,3.52,6.35,3.42,12,0,2.31,0,4.66,0,6.93,0,3.34.06,6.79-.1,10.16-.53,11.32-5.32,16.15-16,16.15h-1c-3.73-.11-7.68-.16-12.06-.16-6.44,0-13,.11-19.31.22s-12.86.22-19.28.22c-4.63,0-8.78-.06-12.7-.17l-1.55,0c-5.52,0-8.94,1-11.1,3.32s-3.11,6.1-2.76,12c.29,4.93.32,9,.34,12.21.09,15.29,1,15.3,22.84,15.37l4.52,0c2.13,0,4.27,0,6.4,0,10.83,0,21.84-.15,32.49-.3,9.71-.13,19.75-.27,29.62-.3h.55c21.2,0,23.64,2.56,23.69,24.92,0,.75,0,1.52-.05,2.27a33.31,33.31,0,0,0,.06,4.68c.8,7.34-.21,12.46-3.08,15.65-3,3.34-8.12,4.89-16.16,4.89l-1.35,0c-20.62-.42-41.51-.64-62.1-.64-23.78,0-47.84.29-71.53.86H44.89c-7.48,0-12.45-1.49-15.64-4.7s-4.7-8.35-4.65-16.08c.15-23.49.12-47.37.09-70.47q0-14.44,0-28.88v-1h-.32q0-13.6,0-27.21c.06-22.76.11-46.29-.16-69.44-.09-7.24,1.28-12.05,4.32-15.12s7.76-4.46,14.65-4.46h.23c8.77,0,17.66.06,26.43.06,36.07,0,72.7-.33,108.89-1h.92m0-1h-.94q-54.42,1-108.87,1-13.21,0-26.43-.06h-.23c-14.71,0-20.14,6.39-20,20.6.39,32.54.12,65.08.12,97.63h.32c0,33.12.15,66.23-.06,99.35-.1,15.16,5.64,21.78,21.29,21.78H46.3q35.74-.86,71.51-.86,31,0,62.08.64l1.37,0c15.63,0,21.94-5.87,20.24-21.65a62.6,62.6,0,0,1,0-6.85c-.06-22.74-2.82-25.91-24.69-25.91h-.55c-20.7.05-41.41.6-62.11.6-2.13,0-4.27,0-6.4,0-31.93-.19-25,1.31-26.7-26.66-.65-11,3-14.29,12.86-14.29l1.52,0c4.24.13,8.49.18,12.73.18,12.86,0,25.73-.44,38.59-.44,4,0,8,0,12,.16h1c11.93,0,16.48-6.06,17-17.1.27-5.7,0-11.42.09-17.12.18-10.56-3.74-16.38-14.9-16.38l-1.13,0c-7.76.26-15.54.34-23.32.34-9.92,0-19.85-.14-29.77-.23-27.46-.25-26.81-.32-26.71-27,0-10.61,3.65-13.21,12.86-13.21l1.09,0c10.94.21,21.88.28,32.82.28,15.89,0,31.79-.14,47.68-.17,24.29,0,24.44-.22,25-25,0-2.28,0-4.57.15-6.85.83-15.18-5.11-22.89-21-22.89Z"/><path class="cls-2" d="M249.3,182.29l-1.56,0c-20.37-.73-34.78-17.53-34.24-40,.49-20.67,17.26-37.48,37.39-37.48.55,0,1.1,0,1.65,0,21.22,1,37.45,18.64,37,40.26C289,166,271.35,182.29,249.3,182.29Z"/><path d="M250.89,104.32v1h0c.54,0,1.09,0,1.63,0a37.73,37.73,0,0,1,26.31,12.18A39.12,39.12,0,0,1,289,145.1a36.39,36.39,0,0,1-11.92,26,40.77,40.77,0,0,1-27.77,10.67l-1.54,0c-20.09-.72-34.29-17.31-33.76-39.45a38.12,38.12,0,0,1,11.19-26.22,36.26,36.26,0,0,1,25.7-10.77v-1m0,0c-20.4,0-37.39,16.83-37.89,38-.54,22.74,14,39.74,34.73,40.48.52,0,1.05,0,1.57,0,22.09,0,40.2-16.61,40.69-37.66.51-22-15.83-39.79-37.42-40.77-.57,0-1.12,0-1.68,0Z"/><path class="cls-3" d="M1193.37,143.89c0-33.15.41-66.31-.21-99.44-.26-14,4.91-19.9,19-19.21,34.13,1.67,69.09-1.36,102.26,5.05,57.57,11.11,93.88,61.73,92,119.51a115.18,115.18,0,0,1-99.49,110.07c-32.56,4.65-66,3.08-99.1,3.91-12.59.31-14.47-8.74-14.47-18.73Q1193.39,194.47,1193.37,143.89Z"/><path class="cls-3" d="M996.57,141.87c0-31.44.42-62.88-.17-94.31-.29-15.64,5.11-23,21.74-22.87,44,.33,88-.2,132-.77,15.13-.2,21.45,6.1,21.4,21.56-.11,33,.39,33-32.45,33-23.43,0-46.9.9-70.29,0-17.88-.69-12.95,11.64-13.63,20.91-.73,10-1.66,19.78,13.78,19.1,20-.87,40-.66,60-.51,19.22.14,21.11,2.69,21.08,25.8,0,21.52-2.57,24.62-20.75,24.78-20,.18-40,.7-60,.09-10.85-.33-14.91,2.47-14.62,14.3.63,26.46-.09,26.61,25.6,26.7,24,.08,48,.16,72-.39,15.58-.35,23.87,5.58,22.73,22-.43,6.26,1.43,13.37-1,18.62-2.48,5.41-8.78,12.75-13.55,12.86-49.14,1.06-98.3.71-147.45,1-16.24.09-16.43-11.58-16.55-22.47-.37-33.15-.13-66.3-.13-99.45Z"/><path class="cls-3" d="M834.23,109.56C855.89,85.73,875,66.05,892.47,45c12.46-15,25.65-25.21,46.39-21.68,13,2.22,26.26,3.29,39.4,4.87-7.67,10.61-14.46,22-23.19,31.68-21.41,23.71-43.33,47-65.9,69.64-7.39,7.41-7.68,12-.72,19.42,25.32,27.12,50.45,54.43,75,82.27,6.45,7.34,10.43,16.85,15.55,25.37-9.52,1.91-19,3.84-28.55,5.73-29.15,5.78-49.48-5.95-66.52-29.58C870.67,214.41,853.54,198.9,834,183c0,19.5-.8,39,.25,58.48.84,15.72-5.15,20.92-20.66,21.13-37.64.5-37.57,1.13-37.55-36.33,0-60,.37-120-.32-179.93C775.57,31,778.59,24,796.14,23.67c38-.78,38-1.87,38.08,35.76C834.27,74.67,834.23,89.91,834.23,109.56Z"/><path class="cls-3" d="M402,101.44C414.94,80.77,427.17,62.19,438.3,43c7.82-13.51,17.08-22.31,34-19.15,12.85,2.4,25.86,4,38.8,5.93-5.95,11.19-11.22,22.81-18,33.49-17.42,27.47-36.1,54.15-53,81.95-5.27,8.71-8.33,19.88-8.87,30.11-1.26,23.93-.56,48-.3,72,.13,11.65-5.14,15.76-16.66,16.14-40.63,1.32-43.44,1.4-39.95-39.42,4-46.87-9.57-85.59-38.6-121.27-15.43-19-27.89-40.35-41.76-60.59-7.73-11.28-4.58-16.8,8.8-17.17.57,0,1.14-.09,1.71-.08,55.7.73,39.49-12.15,71.95,36.41C384.73,73.58,392.39,86.21,402,101.44Z"/><path class="cls-3" d="M758.58,145.63c.21,64.74-55.39,118.17-123,118.16-63.87,0-118.58-55-118.45-119.14C517.32,79,573.69,25,641.42,25.47,705.36,25.94,758.38,80.32,758.58,145.63Z"/><path class="cls-4" d="M726,157.73c-3.47,40-41.67,72.73-84.62,74.07-44.9,1.4-85.2-30.81-91.57-74.23,13.77,0,27.42-.43,41,.31,3.33.18,7.2,3.62,9.56,6.57,21.45,26.81,53,26.66,74.84-.32,2.33-2.89,6.41-5.93,9.83-6.11C698.31,157.31,711.67,157.73,726,157.73Z"/><path class="cls-4" d="M726,131.56c-3.47-40-41.67-72.73-84.62-74.07-44.9-1.41-85.2,30.81-91.57,74.23,13.77,0,27.42.43,41-.31,3.33-.18,7.2-3.62,9.56-6.57,21.45-26.82,53-26.67,74.84.31,2.33,2.9,6.41,5.94,9.83,6.12C698.31,132,711.67,131.56,726,131.56Z"/></svg>