<svg id="Layer_1" data-name="Layer 1" xmlns="http://www.w3.org/2000/svg" viewBox="0 0 1405 251"><defs><style>.cls-1{fill:#142440;}.cls-1,.cls-2{stroke:#000;stroke-miterlimit:10;stroke-width:0.5px;}.cls-2{fill:#fff;}</style></defs><path class="cls-1" d="M12.34,129.87c0-32.55.27-65.1-.12-97.64C12.05,18,17.53,11.57,32.42,11.64q67.65.3,135.3-.94c16.61-.31,22.8,7.4,21.95,22.88-.12,2.28-.1,4.56-.15,6.85-.56,24.73-.71,24.91-25,24.95-26.83,0-53.67.42-80.5-.12-10-.2-13.9,2.18-14,13.19-.1,26.69-.75,26.77,26.71,27,17.7.16,35.41.47,53.09-.11,12-.4,16.21,5.45,16,16.35-.09,5.71.18,11.43-.09,17.12-.53,11.36-5.33,17.45-18,17.09-21.1-.58-42.26.74-63.36.11-11-.33-15.07,2.69-14.38,14.27,1.65,28-5.23,26.47,26.7,26.66,22.84.14,45.67-.53,68.51-.58,22.37,0,25.18,3,25.24,25.91a62.6,62.6,0,0,0,0,6.85c1.75,16.23-5,22-21.61,21.63q-66.76-1.38-133.59.21c-16.71.4-22.8-6.15-22.7-21.77.21-33.11.06-66.23.06-99.34Z"/><path class="cls-2" d="M202,129.28c.51-21.71,18.42-38.87,39.57-37.92,21.59,1,37.93,18.77,37.42,40.77-.5,21.55-19.47,38.44-42.26,37.63C216,169,201.46,152,202,129.28Z"/><path class="cls-1" d="M1182.37,129.89c0-33.15.41-66.31-.21-99.44-.26-14,4.91-19.9,19-19.21,34.13,1.67,69.09-1.36,102.26,5,57.57,11.11,93.88,61.73,92,119.51a115.18,115.18,0,0,1-99.49,110.07c-32.56,4.65-66,3.08-99.1,3.91-12.59.31-14.47-8.74-14.47-18.73Q1182.39,180.47,1182.37,129.89Z"/><path class="cls-1" d="M985.57,127.87c0-31.44.42-62.88-.17-94.31-.29-15.64,5.11-23,21.74-22.87,44,.33,88-.2,132-.77,15.13-.2,21.45,6.1,21.4,21.56-.11,33,.39,33-32.45,33-23.43,0-46.9.9-70.29,0-17.88-.69-12.95,11.64-13.63,20.91-.73,10-1.66,19.78,13.78,19.1,20-.87,40-.66,60-.51,19.22.14,21.11,2.69,21.08,25.8,0,21.52-2.57,24.62-20.75,24.78-20,.18-40,.7-60,.09-10.85-.33-14.91,2.47-14.62,14.3.63,26.46-.09,26.61,25.6,26.7,24,.08,48,.16,72-.39,15.58-.35,23.87,5.58,22.73,22-.43,6.26,1.43,13.37-1,18.62-2.48,5.41-8.78,12.75-13.55,12.86-49.14,1.06-98.3.71-147.45,1-16.24.09-16.43-11.58-16.55-22.47-.37-33.15-.13-66.3-.13-99.45Z"/><path class="cls-1" d="M823.23,95.56C844.89,71.73,864,52.05,881.47,31c12.46-15,25.65-25.21,46.39-21.68,13,2.22,26.26,3.29,39.4,4.87-7.67,10.61-14.46,22-23.19,31.68-21.41,23.71-43.33,47-65.9,69.64-7.39,7.41-7.68,12-.72,19.42,25.32,27.12,50.45,54.43,75,82.27,6.45,7.34,10.43,16.85,15.55,25.37-9.52,1.91-19,3.84-28.55,5.73-29.15,5.78-49.48-6-66.52-29.58C859.67,200.41,842.54,184.9,823,169c0,19.5-.8,39,.25,58.48.84,15.72-5.15,20.92-20.66,21.13-37.64.5-37.57,1.13-37.55-36.33,0-60,.37-120-.32-179.93C764.57,17,767.59,10,785.14,9.67c38-.78,38-1.87,38.08,35.76C823.27,60.67,823.23,75.91,823.23,95.56Z"/><path class="cls-1" d="M402.19,87.44c13-20.62,25.26-39.16,36.46-58.33,7.86-13.48,17.15-22.25,34.1-19,12.85,2.44,25.85,4.07,38.78,6.06-6,11.17-11.29,22.78-18.1,33.43-17.5,27.41-36.28,54-53.22,81.77-5.31,8.69-8.4,19.85-9,30.07-1.34,23.93-.72,48-.55,72,.09,11.66-5.19,15.75-16.72,16.08-40.63,1.19-43.44,1.26-39.81-39.55,4.17-46.86-9.27-85.63-38.17-121.4-15.37-19-27.75-40.45-41.56-60.74-7.69-11.31-4.52-16.82,8.86-17.14.58,0,1.15-.09,1.72-.08,55.69.93,39.53-12,71.82,36.67C385,59.52,392.59,72.18,402.19,87.44Z"/><path class="cls-1" d="M747.58,131.63c.21,64.74-55.39,118.17-123,118.16-63.87,0-118.58-55-118.45-119.14C506.32,65,562.69,11,630.42,11.47,694.36,11.94,747.38,66.32,747.58,131.63Z"/><path class="cls-2" d="M715,143.73c-3.47,40-41.67,72.73-84.62,74.07-44.9,1.4-85.2-30.81-91.57-74.23,13.77,0,27.42-.43,41,.31,3.33.18,7.2,3.62,9.56,6.57,21.45,26.81,53,26.66,74.84-.32,2.33-2.89,6.41-5.93,9.83-6.11C687.31,143.31,700.67,143.73,715,143.73Z"/><path class="cls-2" d="M715,117.56c-3.47-40-41.67-72.73-84.62-74.07-44.9-1.41-85.2,30.81-91.57,74.23,13.77,0,27.42.43,41-.31,3.33-.18,7.2-3.62,9.56-6.57,21.45-26.82,53-26.67,74.84.31,2.33,2.9,6.41,5.94,9.83,6.12C687.31,118,700.67,117.56,715,117.56Z"/></svg>