<svg id="Layer_1" data-name="Layer 1" xmlns="http://www.w3.org/2000/svg" viewBox="0 0 1920 1080"><defs><style>.cls-1{fill:#001f3f;}.cls-1,.cls-2{stroke:#000;stroke-miterlimit:10;stroke-width:0.5px;}.cls-2{fill:#fff;}</style></defs><path class="cls-1" d="M6.13,568.93c0-32.55.26-65.09-.13-97.63-.17-14.29,5.32-20.66,20.21-20.6q67.65.32,135.3-.94c16.61-.31,22.8,7.41,22,22.88-.12,2.28-.1,4.57-.15,6.85-.56,24.73-.72,24.91-25,24.95-26.84.05-53.68.42-80.5-.11-10-.2-13.91,2.17-14,13.19-.1,26.68-.75,26.76,26.71,27,17.7.17,35.41.47,53.09-.11,12-.39,16.21,5.46,16,16.36-.09,5.7.17,11.42-.09,17.12-.54,11.35-5.33,17.44-18,17.09-21.1-.59-42.25.73-63.35.1-11-.32-15.07,2.7-14.39,14.27,1.66,28-5.22,26.47,26.71,26.66,22.83.14,45.67-.52,68.51-.58,22.37-.05,25.18,3,25.23,25.91a68,68,0,0,0,0,6.85c1.76,16.23-5,22-21.6,21.63q-66.77-1.38-133.59.22c-16.72.4-22.81-6.16-22.71-21.77.21-33.12.07-66.23.07-99.35Z"/><path class="cls-2" d="M279.21,568.22c.52-21.71,18.43-38.88,39.57-37.93,21.6,1,37.93,18.77,37.42,40.77-.5,21.55-19.47,38.44-42.26,37.63C293.26,608,278.67,591,279.21,568.22Z"/><path class="cls-1" d="M1712.87,579.82c0-33.15.41-66.31-.21-99.45-.26-14,4.91-19.89,19-19.2,34.13,1.66,69.09-1.36,102.26,5,57.57,11.11,93.88,61.74,92,119.52a115.18,115.18,0,0,1-99.49,110.07c-32.56,4.64-66,3.08-99.1,3.9-12.59.32-14.47-8.74-14.47-18.73Q1712.89,630.39,1712.87,579.82Z"/><path class="cls-1" d="M1422.07,578.5c0-31.44.42-62.88-.17-94.3-.29-15.65,5.11-23,21.74-22.88,44,.33,88-.2,132-.77,15.13-.19,21.45,6.11,21.4,21.56-.11,33,.39,33-32.45,33-23.43,0-46.9.89-70.29,0-17.88-.68-12.95,11.64-13.63,20.91-.73,10-1.66,19.78,13.78,19.11,20-.88,40-.67,60-.52,19.22.15,21.11,2.7,21.08,25.8,0,21.52-2.57,24.63-20.75,24.79-20,.18-40,.69-60,.09-10.85-.33-14.91,2.46-14.62,14.29.63,26.46-.09,26.62,25.6,26.7,24,.09,48,.16,72-.39,15.58-.35,23.87,5.59,22.73,22-.43,6.27,1.43,13.37-1,18.62-2.48,5.41-8.78,12.76-13.55,12.86-49.14,1.06-98.3.72-147.45,1-16.24.09-16.43-11.58-16.55-22.47-.37-33.15-.13-66.3-.13-99.45Z"/><path class="cls-1" d="M1167.73,547c21.66-23.84,40.76-43.51,58.24-64.54,12.46-15,25.65-25.2,46.39-21.67,13,2.21,26.26,3.28,39.4,4.87-7.67,10.61-14.46,22-23.19,31.67-21.41,23.72-43.33,47-65.9,69.64-7.39,7.41-7.68,12-.72,19.43,25.32,27.11,50.45,54.42,75,82.27,6.45,7.33,10.43,16.85,15.55,25.36-9.52,1.91-19,3.84-28.55,5.73-29.15,5.79-49.48-5.94-66.52-29.58-13.22-18.33-30.35-33.84-49.86-49.75,0,19.5-.8,39,.25,58.49.84,15.72-5.15,20.92-20.66,21.13-37.64.5-37.57,1.13-37.55-36.34,0-60,.37-119.95-.32-179.92-.18-15.33,2.84-22.33,20.39-22.69,38-.78,37.95-1.87,38.08,35.77C1167.77,512.08,1167.73,527.31,1167.73,547Z"/><path class="cls-1" d="M575.69,537.91c13-20.63,25.26-39.16,36.46-58.34,7.86-13.48,17.15-22.25,34.1-19C659.1,463,672.1,464.61,685,466.6c-6,11.17-11.29,22.78-18.1,33.43-17.5,27.41-36.28,54-53.22,81.77-5.31,8.69-8.4,19.85-9,30.08-1.34,23.92-.72,48-.55,72,.09,11.66-5.19,15.75-16.72,16.09-40.63,1.18-43.44,1.25-39.81-39.55,4.17-46.87-9.27-85.63-38.17-121.41-15.37-19-27.75-40.45-41.56-60.74-7.69-11.3-4.52-16.82,8.86-17.14.58,0,1.15-.08,1.72-.07,55.69.92,39.53-12,71.82,36.66C558.48,510,566.09,522.65,575.69,537.91Z"/><path class="cls-1" d="M981.08,581.35c.21,64.74-55.39,118.17-123,118.16-63.87,0-118.58-55-118.45-119.14.14-65.62,56.51-119.69,124.24-119.18C927.86,461.66,980.88,516,981.08,581.35Z"/><path class="cls-2" d="M948.48,593.45c-3.47,40-41.67,72.73-84.62,74.07-44.9,1.4-85.2-30.81-91.57-74.23,13.77,0,27.42-.43,41,.31,3.33.18,7.2,3.62,9.56,6.57,21.45,26.81,53,26.66,74.84-.32,2.33-2.89,6.41-5.93,9.83-6.11C920.81,593,934.17,593.45,948.48,593.45Z"/><path class="cls-2" d="M948.48,567.28c-3.47-40-41.67-72.73-84.62-74.07-44.9-1.41-85.2,30.81-91.57,74.23,13.77,0,27.42.43,41-.31,3.33-.18,7.2-3.62,9.56-6.57,21.45-26.82,53-26.67,74.84.31,2.33,2.9,6.41,5.94,9.83,6.12C920.81,567.7,934.17,567.28,948.48,567.28Z"/></svg>