<svg id="Layer_1" data-name="Layer 1" xmlns="http://www.w3.org/2000/svg" viewBox="0 0 1461 273"><defs><style>.cls-1,.cls-3{fill:#000435;}.cls-2,.cls-4{fill:#fff;}.cls-3,.cls-4{stroke:#000;stroke-miterlimit:10;stroke-width:0.5px;}</style></defs><path class="cls-1" d="M61.89,253.5c-7.62,0-12.71-1.54-16-4.86s-4.84-8.56-4.79-16.42c.15-23.5.12-47.39.09-70.49q0-14.43,0-28.86v-.5h-.32q0-13.86,0-27.72c.06-22.75.11-46.28-.16-69.42-.09-7.39,1.33-12.31,4.47-15.49s8-4.6,15-4.6h.23q13.22.06,26.44.06c36.06,0,72.69-.34,108.87-1h.93c7.49,0,12.75,1.71,16.08,5.23s4.87,9.21,4.43,17.13c-.08,1.53-.1,3.09-.12,4.6,0,.76,0,1.51,0,2.27-.55,24.42-.55,24.42-24.5,24.46-7.09,0-14.18.05-21.27.08-8.8,0-17.61.09-26.41.09-12.62,0-23-.09-32.81-.29h-1.1c-10.07,0-13.32,3.33-13.36,13.7v1.8c-.12,25.23.14,25.47,27.21,25.72l7.48.07c7.3.08,14.86.16,22.29.16,8.88,0,16.29-.11,23.34-.34l1.1,0c5,0,8.52,1.15,10.85,3.53,2.49,2.53,3.66,6.57,3.56,12.34,0,2.3,0,4.65,0,6.91,0,3.35.06,6.8-.1,10.19-.54,11.5-5.63,16.63-16.5,16.63l-1,0c-3.73-.1-7.67-.15-12-.15-6.44,0-13,.11-19.31.22s-12.86.22-19.28.22c-4.63,0-8.79-.06-12.71-.18l-1.54,0c-5.37,0-8.68,1-10.74,3.15s-3,5.89-2.62,11.67c.29,4.94.31,9,.34,12.23.09,14.8.5,14.8,22.34,14.88l4.52,0,6.41,0c10.83,0,21.85-.15,32.5-.3,9.7-.14,19.73-.28,29.6-.3h.55c21.42,0,24.14,2.85,24.19,25.41,0,.76,0,1.53-.05,2.29a32.27,32.27,0,0,0,.06,4.61c.81,7.49-.24,12.74-3.2,16-3.1,3.45-8.35,5.05-16.54,5.05H196.9c-20.62-.43-41.52-.64-62.1-.64-23.77,0-47.83.29-71.51.85Z"/><path d="M196.66,14.69c7.35,0,12.49,1.66,15.72,5.07s4.72,9,4.3,16.76c-.09,1.55-.11,3.12-.13,4.63,0,.75,0,1.5,0,2.25-.26,11.71-.41,18.16-3.31,21.05s-9.22,2.91-20.69,2.93c-7.09,0-14.31.05-21.28.08-8.66,0-17.6.09-26.4.09-12.62,0-23-.09-32.8-.29h-1.11c-10.32,0-13.82,3.58-13.86,14.2v1.8c-.12,25.48.4,26,27.7,26.22l7.51.07c7.3.08,14.85.16,22.27.16,8.89,0,16.31-.11,23.36-.34l1.09,0c4.82,0,8.25,1.1,10.48,3.38,2.4,2.43,3.52,6.35,3.42,12,0,2.31,0,4.65,0,6.92,0,3.34.06,6.79-.1,10.17-.53,11.32-5.32,16.15-16,16.15l-1,0c-3.73-.1-7.68-.15-12.06-.15-6.44,0-13,.11-19.31.22s-12.86.22-19.28.22c-4.63,0-8.78-.06-12.7-.18l-1.55,0c-5.52,0-8.94,1-11.1,3.31s-3.11,6.11-2.76,12c.29,4.93.32,9,.34,12.2.09,15.3,1,15.3,22.84,15.38l4.52,0,6.4,0c10.83,0,21.84-.15,32.49-.3,9.71-.14,19.75-.28,29.62-.3h.55c21.2,0,23.64,2.56,23.69,24.91,0,.75,0,1.53-.05,2.28a33.15,33.15,0,0,0,.06,4.67c.8,7.35-.21,12.47-3.08,15.66s-8.12,4.88-16.16,4.88h-1.35c-20.62-.43-41.51-.64-62.1-.64-23.78,0-47.84.29-71.53.85l-1.39,0c-7.48,0-12.45-1.5-15.64-4.71s-4.7-8.35-4.65-16.07c.15-23.49.12-47.37.09-70.47q0-14.44,0-28.88v-1h-.32q0-13.61,0-27.21c.06-22.76.11-46.29-.16-69.44-.09-7.25,1.28-12,4.32-15.13s7.76-4.45,14.65-4.45h.23c8.77,0,17.66.06,26.43.06,36.07,0,72.7-.34,108.89-1h.92m0-1h-.94q-54.42,1-108.87,1-13.21,0-26.43-.06h-.23c-14.71,0-20.14,6.38-20,20.59.39,32.54.12,65.09.12,97.64h.32c0,33.11.15,66.23-.06,99.34C40.5,247.38,46.24,254,61.89,254l1.41,0q35.74-.85,71.51-.85,31,0,62.08.64h1.37c15.63,0,21.94-5.87,20.24-21.64a62.6,62.6,0,0,1,0-6.85c-.06-22.74-2.82-25.91-24.69-25.91h-.55c-20.7.05-41.41.6-62.11.6l-6.4,0c-31.93-.19-25,1.31-26.7-26.66-.65-11,3-14.29,12.86-14.29l1.52,0c4.24.13,8.49.18,12.73.18,12.86,0,25.73-.44,38.59-.44,4,0,8,0,12,.15l1,0c11.93,0,16.48-6.07,17-17.11.27-5.69,0-11.41.09-17.12.18-10.55-3.74-16.37-14.9-16.37l-1.13,0c-7.76.25-15.54.34-23.32.34-9.92,0-19.85-.14-29.77-.23-27.46-.25-26.81-.33-26.71-27,0-10.6,3.65-13.2,12.86-13.2H112c10.94.22,21.88.29,32.82.29,15.89,0,31.79-.14,47.68-.17,24.29,0,24.44-.22,25-24.95,0-2.29,0-4.57.15-6.85.83-15.18-5.11-22.89-21-22.89Z"/><path class="cls-2" d="M266.3,171.65l-1.56,0c-20.37-.72-34.78-17.53-34.24-40C231,111,247.76,94.19,267.89,94.19c.55,0,1.1,0,1.65,0,21.22,1,37.45,18.64,36.95,40.25C306,155.33,288.35,171.65,266.3,171.65Z"/><path d="M267.89,93.69v1h0c.54,0,1.09,0,1.63,0a37.76,37.76,0,0,1,26.31,12.17A39.16,39.16,0,0,1,306,134.47a36.37,36.37,0,0,1-11.92,26,40.77,40.77,0,0,1-27.77,10.67l-1.54,0c-20.09-.71-34.29-17.3-33.76-39.45a38.12,38.12,0,0,1,11.19-26.22,36.21,36.21,0,0,1,25.7-10.76v-1m0,0c-20.4,0-37.39,16.83-37.89,38-.54,22.74,14,39.74,34.73,40.47.52,0,1,0,1.57,0,22.09,0,40.2-16.6,40.69-37.66.51-22-15.83-39.79-37.42-40.76-.57,0-1.12,0-1.68,0Z"/><path class="cls-3" d="M1228.37,133.26c0-33.15.41-66.31-.21-99.45-.26-14,4.91-19.89,19-19.2,34.13,1.66,69.09-1.36,102.26,5,57.57,11.11,93.88,61.74,92,119.52a115.18,115.18,0,0,1-99.49,110.07c-32.56,4.64-66,3.08-99.1,3.9-12.59.32-14.47-8.74-14.47-18.73Q1228.39,183.83,1228.37,133.26Z"/><path class="cls-3" d="M1022.57,132.5c0-31.44.42-62.88-.17-94.3-.29-15.65,5.11-23,21.74-22.88,44,.33,88-.2,132-.77,15.13-.19,21.45,6.11,21.4,21.56-.11,33,.39,33-32.45,33-23.43,0-46.9.89-70.29,0C1077,68.43,1081.88,80.75,1081.2,90c-.73,10-1.66,19.78,13.78,19.11,20-.88,40-.67,60-.52,19.22.15,21.11,2.7,21.08,25.8,0,21.52-2.57,24.63-20.75,24.79-20,.18-40,.69-60,.09-10.85-.33-14.91,2.46-14.62,14.29.63,26.46-.09,26.62,25.6,26.7,24,.09,48,.16,72-.39,15.58-.35,23.87,5.59,22.73,22-.43,6.27,1.43,13.37-1,18.62-2.48,5.41-8.78,12.76-13.55,12.86-49.14,1.06-98.3.72-147.45,1-16.24.09-16.43-11.58-16.55-22.47-.37-33.15-.13-66.3-.13-99.45Z"/><path class="cls-3" d="M851.23,98.93C872.89,75.09,892,55.42,909.47,34.39c12.46-15,25.65-25.2,46.39-21.67,13,2.21,26.26,3.29,39.4,4.87-7.67,10.61-14.46,22-23.19,31.67-21.41,23.72-43.33,47-65.9,69.64-7.39,7.42-7.68,12-.72,19.43,25.32,27.11,50.45,54.42,75,82.27,6.45,7.33,10.43,16.85,15.55,25.36-9.52,1.91-19,3.84-28.55,5.73-29.15,5.79-49.48-5.94-66.52-29.58-13.22-18.33-30.35-33.84-49.86-49.75,0,19.5-.8,39,.25,58.49.84,15.72-5.15,20.92-20.66,21.13-37.64.5-37.57,1.13-37.55-36.33,0-60,.37-120-.32-179.93-.18-15.33,2.84-22.33,20.39-22.69,38-.78,38-1.87,38.08,35.77C851.27,64,851.23,79.27,851.23,98.93Z"/><path class="cls-3" d="M419,90.8c12.9-20.66,25.13-39.24,36.26-58.46,7.82-13.5,17.08-22.31,34-19.14,12.85,2.4,25.86,4,38.8,5.92-5.95,11.19-11.22,22.82-18,33.49-17.42,27.47-36.1,54.15-53,82-5.27,8.7-8.33,19.88-8.87,30.1-1.26,23.93-.56,48-.3,72,.13,11.66-5.14,15.77-16.66,16.14-40.63,1.33-43.44,1.41-39.95-39.41,4-46.88-9.57-85.59-38.6-121.27-15.43-19-27.89-40.35-41.76-60.59-7.73-11.28-4.58-16.81,8.8-17.18.57,0,1.14-.08,1.71-.08,55.7.73,39.49-12.14,71.95,36.42C401.73,62.94,409.39,75.58,419,90.8Z"/><path class="cls-3" d="M775.58,135c.21,64.74-55.39,118.17-123,118.16-63.87,0-118.58-55-118.45-119.14.14-65.61,56.51-119.69,124.24-119.18C722.36,15.31,775.38,69.69,775.58,135Z"/><path class="cls-4" d="M743,147.1c-3.47,40-41.67,72.72-84.62,74.07-44.9,1.4-85.2-30.81-91.57-74.23,13.77,0,27.42-.44,41,.31,3.33.18,7.2,3.62,9.56,6.56,21.45,26.82,53,26.67,74.84-.31,2.33-2.89,6.41-5.93,9.83-6.11C715.31,146.68,728.67,147.1,743,147.1Z"/><path class="cls-4" d="M743,120.92c-3.47-40-41.67-72.72-84.62-74.07-44.9-1.4-85.2,30.81-91.57,74.23,13.77,0,27.42.44,41-.31,3.33-.18,7.2-3.62,9.56-6.57,21.45-26.81,53-26.66,74.84.32,2.33,2.89,6.41,5.93,9.83,6.11C715.31,121.34,728.67,120.92,743,120.92Z"/></svg>