<svg id="Layer_1" data-name="Layer 1" xmlns="http://www.w3.org/2000/svg" viewBox="0 0 262.9 262.82"><defs><style>.cls-1{fill:#000435;}.cls-1,.cls-2{stroke:#000;stroke-miterlimit:10;stroke-width:0.5px;}.cls-2{fill:#fff;}</style></defs><path class="cls-1" d="M250.65,132.42c.21,64.74-55.39,118.16-122.95,118.15-63.87,0-118.59-55-118.45-119.14C9.39,65.82,65.75,11.75,133.49,12.25,197.43,12.73,250.45,67.11,250.65,132.42Z"/><path class="cls-2" d="M218.05,144.52c-3.47,40-41.67,72.73-84.62,74.07-44.9,1.4-85.2-30.81-91.57-74.23,13.77,0,27.42-.44,41,.31,3.33.18,7.2,3.62,9.56,6.57,21.45,26.81,53,26.66,74.84-.32,2.33-2.89,6.41-5.93,9.83-6.11C190.38,144.1,203.73,144.52,218.05,144.52Z"/><path class="cls-2" d="M218.05,118.34c-3.47-40-41.67-72.72-84.62-74.06-44.9-1.41-85.2,30.81-91.57,74.23,13.77,0,27.42.43,41-.31,3.33-.19,7.2-3.62,9.56-6.57,21.45-26.82,53-26.67,74.84.31,2.33,2.89,6.41,5.93,9.83,6.12C190.38,118.76,203.73,118.34,218.05,118.34Z"/></svg>